<svg width="85" height="50" viewBox="0 0 85 50" fill="none" xmlns="http://www.w3.org/2000/svg">
<path d="M0.00229626 0.914938C-0.0406123 0.311657 0.524953 -0.136229 1.10191 0.0379844C5.48782 1.36474 9.11414 4.84803 11.8587 8.62197C14.1286 11.7432 15.8196 15.0984 16.8597 17.6874C17.978 18.486 19.3797 19.4011 21.1195 20.3954C22.6225 21.2543 25.191 22.2272 28.4691 23.1815C29.6351 23.521 30.8833 23.8549 32.1937 24.1796C24.1812 18.7531 21.4505 9.53403 21.1078 4.07216C21.0682 3.44158 21.6187 2.95928 22.221 3.05654L22.3421 3.08388L22.8675 3.24599C28.2585 4.99967 32.7301 9.30646 36.139 13.9745C39.2787 18.274 41.5542 22.9321 42.847 26.328C50.0696 27.4781 57.574 28.0632 63.2679 27.5077C50.0596 24.7151 44.9919 12.8357 43.9857 6.2167C43.8846 5.55148 44.4667 4.98887 45.1283 5.1122C50.874 6.18565 55.8953 10.1387 59.8226 14.5878C63.6239 18.8942 66.4497 23.7221 67.9671 27.0253C77.6889 26.0755 80.703 26.2627 84.472 28.2626C84.9599 28.5215 85.1459 29.1273 84.8871 29.6151C84.6281 30.1028 84.0223 30.289 83.5345 30.0302C79.8955 28.0991 77.2609 28.0297 63.808 29.4647C63.6296 29.4838 63.4495 29.5007 63.2679 29.5175C59.5654 46.0486 46.1207 50.0428 39.1732 49.9989C38.5416 49.9948 38.0887 49.4061 38.2084 48.8114L38.2406 48.6923L38.43 48.1503C40.4629 42.5845 44.8331 38.1687 49.4808 34.8983C52.6897 32.6404 56.0546 30.9137 58.9261 29.7186C55.0272 29.7451 50.7003 29.4133 46.3763 28.8554C38.8944 43.9862 24.8794 44.273 18.1576 42.3778C17.5531 42.2072 17.2612 41.5156 17.5209 40.9677L17.5794 40.8603L17.891 40.3856C21.1759 35.5374 26.4513 32.4264 31.722 30.4979C35.0604 29.2765 38.4201 28.5223 41.3158 28.1024C40.6673 27.9931 40.0221 27.8817 39.3832 27.7645C35.2081 26.9993 31.2436 26.0728 27.9105 25.1024C27.4355 24.9642 26.9725 24.823 26.5218 24.6825L26.2787 24.8417C23.9801 26.3435 20.0739 28.3227 15.7044 29.4735C11.3412 30.6226 6.46012 30.96 2.25034 29.1063C1.70746 28.8669 1.54031 28.1425 1.93394 27.6903C4.791 24.4095 10.951 20.0892 18.6205 21.2372C17.6486 20.6438 16.7934 20.0846 16.0462 19.5624C4.06172 17.2441 0.407441 6.6094 0.00229626 0.914938Z" fill="#7F4300" fill-opacity="0.25"/>
</svg>
