<svg width="15" height="15" viewBox="0 0 15 15" fill="none" xmlns="http://www.w3.org/2000/svg">
<g clip-path="url(#clip0_20344_33769)">
<path d="M1.32617 11.1025C1.54584 11.1026 1.75638 11.1909 1.91113 11.3486C2.06578 11.5063 2.15234 11.7202 2.15234 11.9424V14.1631C2.15219 14.3849 2.06554 14.5983 1.91113 14.7559C1.7564 14.9135 1.54577 15.0029 1.32617 15.0029C1.10648 15.0029 0.896006 14.9135 0.741211 14.7559C0.586645 14.5983 0.500151 14.3851 0.5 14.1631V11.9424C0.5 11.7202 0.586567 11.5063 0.741211 11.3486C0.895997 11.191 1.10653 11.1025 1.32617 11.1025ZM4.95703 8.1416C5.1768 8.1416 5.38718 8.23091 5.54199 8.38867C5.69657 8.54631 5.78413 8.75939 5.78418 8.98145V14.1631C5.78403 14.3851 5.6966 14.5983 5.54199 14.7559C5.3872 14.9135 5.17672 15.0029 4.95703 15.0029C4.73749 15.0028 4.52677 14.9134 4.37207 14.7559C4.21771 14.5983 4.13101 14.3849 4.13086 14.1631V8.98145C4.13091 8.75958 4.21774 8.54627 4.37207 8.38867C4.52679 8.231 4.73741 8.14171 4.95703 8.1416ZM8.58887 9.62207C8.80852 9.62207 9.01904 9.71055 9.17383 9.86816C9.32846 10.0258 9.41502 10.2398 9.41504 10.4619V14.1631C9.41489 14.385 9.32834 14.5983 9.17383 14.7559C9.01903 14.9135 8.80856 15.0029 8.58887 15.0029C8.36921 15.0029 8.15868 14.9135 8.00391 14.7559C7.84945 14.5983 7.76285 14.385 7.7627 14.1631V10.4619C7.76271 10.2398 7.84928 10.0258 8.00391 9.86816C8.15868 9.71052 8.36921 9.62209 8.58887 9.62207ZM12.2207 5.9209C12.4404 5.92096 12.6509 6.01026 12.8057 6.16797C12.9601 6.32554 13.0468 6.53885 13.0469 6.76074V14.1631C13.0467 14.385 12.9601 14.5983 12.8057 14.7559C12.6509 14.9135 12.4403 15.0029 12.2207 15.0029C12.001 15.0029 11.7905 14.9135 11.6357 14.7559C11.4812 14.5983 11.3947 14.3851 11.3945 14.1631V6.76074C11.3946 6.53875 11.4812 6.32556 11.6357 6.16797C11.7906 6.0102 12.0009 5.9209 12.2207 5.9209ZM13.6729 0C13.8925 0 14.103 0.088483 14.2578 0.246094C14.4125 0.403779 14.499 0.6177 14.499 0.839844V3.80078C14.4989 4.02275 14.4124 4.23601 14.2578 4.39355C14.103 4.55122 13.8925 4.64062 13.6729 4.64062C13.4532 4.64056 13.2426 4.55116 13.0879 4.39355C12.9335 4.23604 12.8468 4.02264 12.8467 3.80078V2.87109L8.81055 6.98438C8.65576 7.14195 8.44521 7.23145 8.22559 7.23145C8.00602 7.23139 7.79536 7.14193 7.64062 6.98438L5.68359 4.98926L1.91113 8.83496L1.90918 8.83594C1.75362 8.9889 1.54507 9.07406 1.32812 9.07227C1.11106 9.07034 0.903013 8.98189 0.75 8.82617C0.597084 8.67034 0.510746 8.45884 0.508789 8.23926C0.507021 8.01979 0.59014 7.80788 0.740234 7.64941L0.741211 7.64844L5.09863 3.20703C5.2534 3.04936 5.46392 2.96 5.68359 2.95996C5.90329 2.95996 6.11376 3.04936 6.26855 3.20703L8.22559 5.20117L11.6816 1.67969H10.7676C10.548 1.67961 10.3373 1.59115 10.1826 1.43359C10.028 1.27599 9.94151 1.06193 9.94141 0.839844C9.94141 0.617706 10.028 0.403778 10.1826 0.246094C10.3374 0.0883978 10.5479 7.855e-05 10.7676 0H13.6729Z" fill="#B48EFA"/>
</g>
<defs>
<clipPath id="clip0_20344_33769">
<rect width="15" height="15" fill="white"/>
</clipPath>
</defs>
</svg>
